<svg xmlns="http://www.w3.org/2000/svg" xmlns:xlink="http://www.w3.org/1999/xlink" viewBox="0 0 376.17 438.87"><defs><style>.cls-1{fill:none;}.cls-2{clip-path:url(#clip-path);}.cls-3{fill:url(#linear-gradient);}.cls-4{clip-path:url(#clip-path-2);}</style><clipPath id="clip-path" transform="translate(21.76 0.13)"><polygon class="cls-1" points="33.89 60.63 277.63 60.63 92.56 245.7 178.3 245.7 353.39 70.62 353.39 0 33.89 0 33.89 60.63"/></clipPath><linearGradient id="linear-gradient" x1="46.05" y1="465.46" x2="330.13" y2="-26.59" gradientUnits="userSpaceOnUse"><stop offset="0.11" stop-color="#1601e5"/><stop offset="0.43" stop-color="#ff29e1"/><stop offset="1" stop-color="#ffd36b"/></linearGradient><clipPath id="clip-path-2" transform="translate(21.76 0.13)"><path class="cls-1" d="M339.43,189.39l-6-14.27L287,221.61l1.6,5.83a119.29,119.29,0,0,1,4.21,31.49v.14a117.63,117.63,0,0,1-12.93,53.85A118.87,118.87,0,0,1,188.76,377a121.11,121.11,0,0,1-30.08,0,119.27,119.27,0,0,1-90.83-63.65l-3-6.13H0l5.17,14A180,180,0,0,0,36.34,374.7c3.35,4,6.91,7.85,10.56,11.47,3.12,3.12,6.41,6.17,9.77,9.06a179.35,179.35,0,0,0,117.06,43.36,182,182,0,0,0,19.86-1.08,179.54,179.54,0,0,0,159.8-178.43v-.15a179.19,179.19,0,0,0-14-69.54Z"/></clipPath></defs><g id="Layer_2" data-name="Layer 2"><g id="Layer_1-2" data-name="Layer 1"><g class="cls-2"><rect class="cls-3" width="376.17" height="438.87"/></g><g class="cls-4"><rect class="cls-3" width="376.17" height="438.87"/></g></g></g></svg>