<svg xmlns="http://www.w3.org/2000/svg" xmlns:xlink="http://www.w3.org/1999/xlink" viewBox="0 0 670.39 191.35"><defs><style>.cls-1{fill:none;}.cls-2{clip-path:url(#clip-path);}.cls-3{fill:url(#linear-gradient);}.cls-4{clip-path:url(#clip-path-2);}.cls-5{clip-path:url(#clip-path-3);}.cls-6{clip-path:url(#clip-path-4);}.cls-7{clip-path:url(#clip-path-5);}.cls-8{clip-path:url(#clip-path-6);}.cls-9{clip-path:url(#clip-path-7);}</style><clipPath id="clip-path" transform="translate(33.56 31.24)"><polygon class="cls-1" points="279.75 19.68 357.5 19.68 298.47 78.71 325.82 78.71 381.67 22.86 381.67 0.33 279.75 0.33 279.75 19.68"/></clipPath><linearGradient id="linear-gradient" x1="209.97" y1="312.58" x2="460.42" y2="-121.22" gradientUnits="userSpaceOnUse"><stop offset="0.11" stop-color="#1601e5"/><stop offset="0.43" stop-color="#ff29e1"/><stop offset="1" stop-color="#ffd36b"/></linearGradient><clipPath id="clip-path-2" transform="translate(33.56 31.24)"><path class="cls-1" d="M377.22,60.75l-1.91-4.55L360.48,71l.51,1.86a38,38,0,0,1,1.34,10v0a37.93,37.93,0,0,1-33.18,37.62,38.47,38.47,0,0,1-9.59,0,37.5,37.5,0,0,1-5.25-1,38.13,38.13,0,0,1-23.73-19.26l-.94-2h-20.7l1.65,4.47a57.49,57.49,0,0,0,9.94,17c1.07,1.27,2.21,2.51,3.37,3.66,1,1,2.05,2,3.12,2.89a57.16,57.16,0,0,0,31,13.49,57.6,57.6,0,0,0,12.68,0,56.9,56.9,0,0,0,31-13.49,58.94,58.94,0,0,0,6.49-6.54A57.13,57.13,0,0,0,381.67,83v0a57,57,0,0,0-4.45-22.18Z"/></clipPath><clipPath id="clip-path-3" transform="translate(33.56 31.24)"><path class="cls-1" d="M90.43,113.49q-8.85,4.71-21.16,4.71a42.16,42.16,0,0,1-17.8-3.75,43.37,43.37,0,0,1-14.14-10.29,46.6,46.6,0,0,1-9.24-15.3A53.19,53.19,0,0,1,24.82,70.1a52.36,52.36,0,0,1,3.27-18.66,45.73,45.73,0,0,1,9.24-15.11A44.13,44.13,0,0,1,51.47,26.14a42,42,0,0,1,17.8-3.76A44.6,44.6,0,0,1,89.85,27,76.11,76.11,0,0,1,107,39.12l15.2-17.51A92.28,92.28,0,0,0,112,13.15a64.81,64.81,0,0,0-11.74-6.64A68.51,68.51,0,0,0,86.3,2.18,84.78,84.78,0,0,0,69.46.64,70.21,70.21,0,0,0,41.37,6.12,67,67,0,0,0,5.1,43.36,72.05,72.05,0,0,0,0,70.49,71.37,71.37,0,0,0,5.2,97.81a67.83,67.83,0,0,0,14.33,22,67.05,67.05,0,0,0,21.65,14.72,68.31,68.31,0,0,0,27.32,5.38,84.1,84.1,0,0,0,17.22-1.63,61.59,61.59,0,0,0,14.33-4.81A71.63,71.63,0,0,0,112.27,126a86.27,86.27,0,0,0,10.87-9.9l-15.2-15.4A83,83,0,0,1,90.43,113.49Z"/></clipPath><clipPath id="clip-path-4" transform="translate(33.56 31.24)"><path class="cls-1" d="M490.79,73.51a47.89,47.89,0,0,0-13.8-8.1,154.21,154.21,0,0,0-19.08-6q-9.8-2.34-16.15-4.49a40,40,0,0,1-10-4.69,14.39,14.39,0,0,1-5-5.47,16.51,16.51,0,0,1-1.37-7q0-6.82,5.86-11.61t16.4-4.79a50.25,50.25,0,0,1,18.55,3.62,83.65,83.65,0,0,1,18.55,10.44l12.89-18.16A80.74,80.74,0,0,0,475.11,4.39,78.31,78.31,0,0,0,448.06,0a59.55,59.55,0,0,0-18.72,2.83,42.67,42.67,0,0,0-14.68,8.1,38.1,38.1,0,0,0-9.58,12.6,37.37,37.37,0,0,0-3.49,16.3q0,9.57,3,16.21a31.05,31.05,0,0,0,8.82,11.32,49.35,49.35,0,0,0,14.29,7.81,162.37,162.37,0,0,0,19.47,5.67,159.43,159.43,0,0,1,15.57,4.49,39.26,39.26,0,0,1,9.39,4.59,13.3,13.3,0,0,1,4.7,5.37,16.44,16.44,0,0,1,1.27,6.63,14.83,14.83,0,0,1-6.54,12.7q-6.54,4.68-17.67,4.68a55.36,55.36,0,0,1-23-4.59,83.61,83.61,0,0,1-20.11-13.18l-14.45,17.19a82.65,82.65,0,0,0,26.75,16.5,86.39,86.39,0,0,0,30.27,5.37,67.44,67.44,0,0,0,19.7-2.74,44,44,0,0,0,15.36-8,37,37,0,0,0,10-12.89A40.35,40.35,0,0,0,502,99.58a36.24,36.24,0,0,0-2.84-14.94A32.11,32.11,0,0,0,490.79,73.51Z"/></clipPath><clipPath id="clip-path-5" transform="translate(33.56 31.24)"><rect class="cls-1" x="560.44" y="42.65" width="24.21" height="95.99"/></clipPath><clipPath id="clip-path-6" transform="translate(33.56 31.24)"><rect class="cls-1" x="517.09" y="1.95" width="110.91" height="20.96"/></clipPath><clipPath id="clip-path-7" transform="translate(33.56 31.24)"><path class="cls-1" d="M235.84,81.52a41.25,41.25,0,0,0,10.42-8.94,40.23,40.23,0,0,0,6.86-12.12,45.74,45.74,0,0,0,2.48-15.59A45.79,45.79,0,0,0,252,26.49a37.79,37.79,0,0,0-10.23-13.9,46.69,46.69,0,0,0-16.29-8.74A70.44,70.44,0,0,0,204,.77H142V22.91h24.23v-.09h35.67q13.74,0,21.32,5.88t7.57,17.46q0,10.77-7.77,17.15T202.08,69.7H166.21v-.1H142v70.22h24.23V91.35h30.68l34.28,48.47H260L222.43,87.18A51.73,51.73,0,0,0,235.84,81.52Z"/></clipPath></defs><g id="Layer_2" data-name="Layer 2"><g id="Layer_1-2" data-name="Layer 1"><g class="cls-2"><rect class="cls-3" width="670.39" height="191.35"/></g><g class="cls-4"><rect class="cls-3" width="670.39" height="191.35"/></g><g class="cls-5"><rect class="cls-3" width="670.39" height="191.35"/></g><g class="cls-6"><rect class="cls-3" width="670.39" height="191.35"/></g><g class="cls-7"><rect class="cls-3" width="670.39" height="191.35"/></g><g class="cls-8"><rect class="cls-3" width="670.39" height="191.35"/></g><g class="cls-9"><rect class="cls-3" width="670.39" height="191.35"/></g></g></g></svg>