<svg xmlns="http://www.w3.org/2000/svg" viewBox="0 0 684 153.12"><g id="Layer_2" data-name="Layer 2"><g id="Layer_1-2" data-name="Layer 1"><polygon points="304.7 0.36 304.7 21.43 389.38 21.43 325.08 85.73 354.87 85.73 415.71 24.9 415.71 0.36 304.7 0.36"/><path d="M414,75.7a62.45,62.45,0,0,0-3.12-9.53l-2.09-5L392.62,77.36l.56,2a41.4,41.4,0,0,1,1.46,10.94v0a41.33,41.33,0,0,1-36.13,41,42.49,42.49,0,0,1-10.45,0,41.41,41.41,0,0,1-31.56-22.12l-1-2.13H292.92l1.8,4.87a62.38,62.38,0,0,0,10.83,18.57c1.16,1.39,2.4,2.73,3.67,4,1.08,1.08,2.22,2.14,3.39,3.14a62.13,62.13,0,0,0,33.77,14.69,62.83,62.83,0,0,0,13.8,0A62,62,0,0,0,394,137.69a62.28,62.28,0,0,0,21.76-47.31v0A62.47,62.47,0,0,0,414,75.7Z"/><path d="M122.28,137.23A78,78,0,0,1,109,145.4a66.63,66.63,0,0,1-15.61,5.24,91.3,91.3,0,0,1-18.75,1.78,74.45,74.45,0,0,1-29.76-5.86,72.86,72.86,0,0,1-23.58-16,73.67,73.67,0,0,1-15.61-24A77.87,77.87,0,0,1,0,76.77,78.6,78.6,0,0,1,5.55,47.22,73.13,73.13,0,0,1,45.06,6.67,76.37,76.37,0,0,1,75.65.7,93.22,93.22,0,0,1,94,2.37a74.82,74.82,0,0,1,15.19,4.72A72,72,0,0,1,122,14.32a100.51,100.51,0,0,1,11.1,9.22L116.52,42.61a82.73,82.73,0,0,0-18.65-13.2,48.67,48.67,0,0,0-22.43-5,45.84,45.84,0,0,0-19.38,4.09,47.82,47.82,0,0,0-15.4,11.1A49.73,49.73,0,0,0,30.6,56,57,57,0,0,0,27,76.35,57.74,57.74,0,0,0,30.6,96.78a50.49,50.49,0,0,0,10.06,16.66,47.13,47.13,0,0,0,15.4,11.22,46,46,0,0,0,19.38,4.08q13.41,0,23.06-5.13a90.75,90.75,0,0,0,19.07-13.94l16.55,16.77A94.31,94.31,0,0,1,122.28,137.23Z"/><path d="M464.84,48.7a15.58,15.58,0,0,0,5.44,6,43.29,43.29,0,0,0,10.87,5.1q6.93,2.34,17.59,4.89a168.68,168.68,0,0,1,20.79,6.59,52.19,52.19,0,0,1,15,8.83,35,35,0,0,1,9.06,12.12,39.59,39.59,0,0,1,3.09,16.27,44,44,0,0,1-3.9,18.93,40.07,40.07,0,0,1-10.86,14,47.94,47.94,0,0,1-16.73,8.71,73.14,73.14,0,0,1-21.46,3,93.83,93.83,0,0,1-33-5.85,89.78,89.78,0,0,1-29.14-18l15.74-18.71a91.32,91.32,0,0,0,21.9,14.35,60.19,60.19,0,0,0,25.1,5q12.12,0,19.24-5.1A16.15,16.15,0,0,0,520.77,111a17.9,17.9,0,0,0-1.39-7.23,14.57,14.57,0,0,0-5.11-5.85,43.21,43.21,0,0,0-10.24-5A175,175,0,0,0,487.08,88a178.46,178.46,0,0,1-21.21-6.16,54.16,54.16,0,0,1-15.57-8.51A33.75,33.75,0,0,1,440.71,61q-3.31-7.23-3.31-17.66a40.76,40.76,0,0,1,3.8-17.75,41.49,41.49,0,0,1,10.44-13.72,46.33,46.33,0,0,1,16-8.83A64.88,64.88,0,0,1,488,0a85.3,85.3,0,0,1,29.45,4.78A88.12,88.12,0,0,1,542,18.71L528,38.49a91.33,91.33,0,0,0-20.2-11.37,54.66,54.66,0,0,0-20.21-3.94q-11.47,0-17.86,5.21t-6.38,12.66A17.88,17.88,0,0,0,464.84,48.7Z"/><rect x="610.42" y="46.45" width="26.37" height="104.55"/><rect x="563.2" y="2.13" width="120.8" height="22.83"/><path d="M242.26,95a56.33,56.33,0,0,0,14.61-6.16,45,45,0,0,0,11.35-9.74,43.8,43.8,0,0,0,7.47-13.2,49.71,49.71,0,0,0,2.7-17,49.76,49.76,0,0,0-3.89-20,41.09,41.09,0,0,0-11.14-15.14,51.14,51.14,0,0,0-17.74-9.52A76.84,76.84,0,0,0,222.14.83h-67.5V25H181v-.1h38.85q15,0,23.22,6.41t8.25,19q0,11.74-8.47,18.69t-22.78,7H181v-.1H154.64v76.48H181V99.5h33.42l37.33,52.79h31.37Z"/></g></g></svg>