<svg xmlns="http://www.w3.org/2000/svg" xmlns:xlink="http://www.w3.org/1999/xlink" viewBox="0 0 373.62 106.65"><defs><style>.cls-1{fill:#ff29e1;}.cls-2{clip-path:url(#clip-path);}.cls-3{clip-path:url(#clip-path-2);}.cls-4{clip-path:url(#clip-path-3);}.cls-5{clip-path:url(#clip-path-4);}.cls-6{clip-path:url(#clip-path-5);}.cls-7{clip-path:url(#clip-path-6);}</style><clipPath id="clip-path" transform="translate(18.7 17.41)"><polygon class="cls-1" points="155.91 10.96 199.25 10.96 166.34 43.87 181.59 43.87 212.72 12.74 212.72 0.19 155.91 0.19 155.91 10.96"/></clipPath><clipPath id="clip-path-2" transform="translate(18.7 17.41)"><path class="cls-1" d="M210.23,33.86l-1.06-2.54-8.27,8.26.29,1a21.48,21.48,0,0,1,.75,5.6v0a21.16,21.16,0,0,1-18.49,21,21.77,21.77,0,0,1-5.35,0,20.83,20.83,0,0,1-2.93-.59,21.22,21.22,0,0,1-9.33-5.41A21,21,0,0,1,162,55.9l-.53-1.09H149.89l.92,2.49a31.61,31.61,0,0,0,2.73,5.61,30.48,30.48,0,0,0,2.81,3.89c.59.71,1.23,1.4,1.88,2s1.14,1.1,1.73,1.61a31.92,31.92,0,0,0,41.62,0,31.2,31.2,0,0,0,3.62-3.65,31.85,31.85,0,0,0,7.52-20.55v0a31.9,31.9,0,0,0-.89-7.49A30.83,30.83,0,0,0,210.23,33.86Z"/></clipPath><clipPath id="clip-path-3" transform="translate(18.7 17.41)"><path class="cls-1" d="M50.4,63.25a24.8,24.8,0,0,1-11.8,2.63,23.5,23.5,0,0,1-9.91-2.09,24.37,24.37,0,0,1-7.89-5.74,26,26,0,0,1-5.14-8.53,29.48,29.48,0,0,1-1.83-10.45,29,29,0,0,1,1.83-10.4,25.56,25.56,0,0,1,5.14-8.42,24.5,24.5,0,0,1,7.89-5.68,23.36,23.36,0,0,1,9.91-2.1,24.85,24.85,0,0,1,11.48,2.58,42.28,42.28,0,0,1,9.54,6.75l8.47-9.75a50.06,50.06,0,0,0-5.68-4.72,35.91,35.91,0,0,0-6.54-3.7,37.68,37.68,0,0,0-7.78-2.41A46.73,46.73,0,0,0,38.71.36,39.15,39.15,0,0,0,23.06,3.41,37.42,37.42,0,0,0,2.84,24.16,40.3,40.3,0,0,0,0,39.28,39.83,39.83,0,0,0,2.9,54.51a37.87,37.87,0,0,0,8,12.28A37.35,37.35,0,0,0,23,75a38.08,38.08,0,0,0,15.23,3,46.56,46.56,0,0,0,9.59-.91,34,34,0,0,0,8-2.68,40,40,0,0,0,6.81-4.18,48.63,48.63,0,0,0,6.06-5.52l-8.47-8.58A46.47,46.47,0,0,1,50.4,63.25Z"/></clipPath><clipPath id="clip-path-4" transform="translate(18.7 17.41)"><path class="cls-1" d="M273.53,41a26.46,26.46,0,0,0-7.69-4.51,85.47,85.47,0,0,0-10.64-3.38q-5.44-1.3-9-2.5A22.31,22.31,0,0,1,240.64,28a8,8,0,0,1-2.78-3,9.16,9.16,0,0,1-.77-3.92,8.08,8.08,0,0,1,3.27-6.47q3.25-2.67,9.14-2.67a28.08,28.08,0,0,1,10.34,2,47.2,47.2,0,0,1,10.34,5.83l7.18-10.12a44.84,44.84,0,0,0-12.57-7.13A43.71,43.71,0,0,0,249.72,0a33.13,33.13,0,0,0-10.44,1.58,23.81,23.81,0,0,0-8.18,4.51,21.14,21.14,0,0,0-5.34,7,20.81,20.81,0,0,0-1.94,9.09,21.56,21.56,0,0,0,1.69,9,17.13,17.13,0,0,0,4.91,6.31,27.61,27.61,0,0,0,8,4.36,91,91,0,0,0,10.86,3.15,87.93,87.93,0,0,1,8.67,2.51,22.05,22.05,0,0,1,5.24,2.55,7.51,7.51,0,0,1,2.62,3,9.21,9.21,0,0,1,.71,3.7,8.26,8.26,0,0,1-3.65,7.07q-3.65,2.61-9.85,2.61a30.76,30.76,0,0,1-12.84-2.56,46.73,46.73,0,0,1-11.21-7.34l-8.05,9.57a46.05,46.05,0,0,0,14.91,9.2,48.13,48.13,0,0,0,16.86,3,37.82,37.82,0,0,0,11-1.52,24.62,24.62,0,0,0,8.56-4.46,20.55,20.55,0,0,0,5.55-7.19,22.34,22.34,0,0,0,2-9.68,20.36,20.36,0,0,0-1.58-8.33A18,18,0,0,0,273.53,41Z"/></clipPath><clipPath id="clip-path-5" transform="translate(18.7 17.41)"><rect class="cls-1" x="312.35" y="23.77" width="13.49" height="53.5"/></clipPath><clipPath id="clip-path-6" transform="translate(18.7 17.41)"><rect class="cls-1" x="288.19" y="1.09" width="61.81" height="11.68"/></clipPath></defs><g id="Layer_2" data-name="Layer 2"><g id="Layer_1-2" data-name="Layer 1"><polygon class="cls-1" points="174.62 28.38 217.95 28.38 185.05 61.28 200.29 61.28 231.42 30.15 231.42 17.6 174.62 17.6 174.62 28.38"/><g class="cls-2"><rect class="cls-1" width="373.62" height="106.65"/></g><path class="cls-1" d="M210.23,33.86l-1.06-2.54-8.27,8.26.29,1a21.48,21.48,0,0,1,.75,5.6v0a21.16,21.16,0,0,1-18.49,21,21.77,21.77,0,0,1-5.35,0,20.83,20.83,0,0,1-2.93-.59,21.22,21.22,0,0,1-9.33-5.41A21,21,0,0,1,162,55.9l-.53-1.09H149.89l.92,2.49a31.61,31.61,0,0,0,2.73,5.61,30.48,30.48,0,0,0,2.81,3.89c.59.71,1.23,1.4,1.88,2s1.14,1.1,1.73,1.61a31.92,31.92,0,0,0,41.62,0,31.2,31.2,0,0,0,3.62-3.65,31.85,31.85,0,0,0,7.52-20.55v0a31.9,31.9,0,0,0-.89-7.49A30.83,30.83,0,0,0,210.23,33.86Z" transform="translate(18.7 17.41)"/><g class="cls-3"><rect class="cls-1" width="373.62" height="106.65"/></g><path class="cls-1" d="M50.4,63.25a24.8,24.8,0,0,1-11.8,2.63,23.5,23.5,0,0,1-9.91-2.09,24.37,24.37,0,0,1-7.89-5.74,26,26,0,0,1-5.14-8.53,29.48,29.48,0,0,1-1.83-10.45,29,29,0,0,1,1.83-10.4,25.56,25.56,0,0,1,5.14-8.42,24.5,24.5,0,0,1,7.89-5.68,23.36,23.36,0,0,1,9.91-2.1,24.85,24.85,0,0,1,11.48,2.58,42.28,42.28,0,0,1,9.54,6.75l8.47-9.75a50.06,50.06,0,0,0-5.68-4.72,35.91,35.91,0,0,0-6.54-3.7,37.68,37.68,0,0,0-7.78-2.41A46.73,46.73,0,0,0,38.71.36,39.15,39.15,0,0,0,23.06,3.41,37.42,37.42,0,0,0,2.84,24.16,40.3,40.3,0,0,0,0,39.28,39.83,39.83,0,0,0,2.9,54.51a37.87,37.87,0,0,0,8,12.28A37.35,37.35,0,0,0,23,75a38.08,38.08,0,0,0,15.23,3,46.56,46.56,0,0,0,9.59-.91,34,34,0,0,0,8-2.68,40,40,0,0,0,6.81-4.18,48.63,48.63,0,0,0,6.06-5.52l-8.47-8.58A46.47,46.47,0,0,1,50.4,63.25Z" transform="translate(18.7 17.41)"/><g class="cls-4"><rect class="cls-1" width="373.62" height="106.65"/></g><path class="cls-1" d="M273.53,41a26.46,26.46,0,0,0-7.69-4.51,85.47,85.47,0,0,0-10.64-3.38q-5.44-1.3-9-2.5A22.31,22.31,0,0,1,240.64,28a8,8,0,0,1-2.78-3,9.16,9.16,0,0,1-.77-3.92,8.08,8.08,0,0,1,3.27-6.47q3.25-2.67,9.14-2.67a28.08,28.08,0,0,1,10.34,2,47.2,47.2,0,0,1,10.34,5.83l7.18-10.12a44.84,44.84,0,0,0-12.57-7.13A43.71,43.71,0,0,0,249.72,0a33.13,33.13,0,0,0-10.44,1.58,23.81,23.81,0,0,0-8.18,4.51,21.14,21.14,0,0,0-5.34,7,20.81,20.81,0,0,0-1.94,9.09,21.56,21.56,0,0,0,1.69,9,17.13,17.13,0,0,0,4.91,6.31,27.61,27.61,0,0,0,8,4.36,91,91,0,0,0,10.86,3.15,87.93,87.93,0,0,1,8.67,2.51,22.05,22.05,0,0,1,5.24,2.55,7.51,7.51,0,0,1,2.62,3,9.21,9.21,0,0,1,.71,3.7,8.26,8.26,0,0,1-3.65,7.07q-3.65,2.61-9.85,2.61a30.76,30.76,0,0,1-12.84-2.56,46.73,46.73,0,0,1-11.21-7.34l-8.05,9.57a46.05,46.05,0,0,0,14.91,9.2,48.13,48.13,0,0,0,16.86,3,37.82,37.82,0,0,0,11-1.52,24.62,24.62,0,0,0,8.56-4.46,20.55,20.55,0,0,0,5.55-7.19,22.34,22.34,0,0,0,2-9.68,20.36,20.36,0,0,0-1.58-8.33A18,18,0,0,0,273.53,41Z" transform="translate(18.7 17.41)"/><g class="cls-5"><rect class="cls-1" width="373.62" height="106.65"/></g><rect class="cls-1" x="331.05" y="41.18" width="13.49" height="53.5"/><g class="cls-6"><rect class="cls-1" width="373.62" height="106.65"/></g><rect class="cls-1" x="306.89" y="18.5" width="61.81" height="11.68"/><g class="cls-7"><rect class="cls-1" width="373.62" height="106.65"/></g><path class="cls-1" d="M131.44,45.43a22.3,22.3,0,0,0,9.63-11.73,25.54,25.54,0,0,0,1.38-8.7,25.48,25.48,0,0,0-2-10.24A21.1,21.1,0,0,0,134.76,7a26.29,26.29,0,0,0-9.08-4.87,39.46,39.46,0,0,0-12-1.71H79.13V12.77h13.5v0h19.88q7.67,0,11.88,3.28c2.82,2.18,4.22,5.43,4.22,9.72a11.73,11.73,0,0,1-4.33,9.57q-4.32,3.56-11.66,3.55h-20v-.05H79.13V77.92h13.5v-27h17.1l19.11,27h16L124,48.59A28.93,28.93,0,0,0,131.44,45.43Z" transform="translate(18.7 17.41)"/></g></g></svg>